# xmcd
#
# Track frame offsets:
#	150
#	10339
#	27563
#	38478
#	54725
#	68303
#	82955
#	95207
#	104895
#
# Disc length: 1948 seconds
#
# Revision: 0
# Processed by: cddbd v1.4PL0 Copyright (c) Steve Scherf et al.
# Submitted via: EasyCDDAExtractor 4.6.9.1
#
DISCID=71079a09
DTITLE=Screamin' Jay Hawkins - Move Me
DYEAR=1900
DGENRE=Blues
TTITLE0=I Got A Spell On You
TTITLE1=I've Got You Under My Skin
TTITLE2=Time After Time
TTITLE3=EbbTide
TTITLE4=Move Me
TTITLE5=Africa Gone Funky
TTITLE6=Ashes
TTITLE7=I Need You
TTITLE8=Sweet Ginny
EXTD=
EXTT0=
EXTT1=
EXTT2=
EXTT3=
EXTT4=
EXTT5=
EXTT6=
EXTT7=
EXTT8=
PLAYORDER=
